<?xml version="1.0" encoding="UTF-8"?><svg xmlns="http://www.w3.org/2000/svg" width="891" height="480" viewBox="0 0 891 480"><rect x="0" y="0" width="40" height="40" fill="#FFFFFF" stroke="#333333" stroke-width="1" /><text x="20.0" y="22.4" text-anchor="middle" font-size="6" font-family="Helvetica" fill="#111111"><tspan x="20.0" dy="0">1</tspan></text><rect x="0" y="40" width="40" height="40" fill="#FFFFFF" stroke="#333333" stroke-width="1" /><text x="20.0" y="62.4" text-anchor="middle" font-size="6" font-family="Helvetica" fill="#111111"><tspan x="20.0" dy="0">2</tspan></text><rect x="0" y="80" width="40" height="40" fill="#FFFFFF" stroke="#333333" stroke-width="1" /><text x="20.0" y="102.4" text-anchor="middle" font-size="6" font-family="Helvetica" fill="#111111"><tspan x="20.0" dy="0">3</tspan></text><rect x="0" y="120" width="40" height="40" fill="#FFFFFF" stroke="#333333" stroke-width="1" /><text x="20.0" y="142.4" text-anchor="middle" font-size="6" font-family="Helvetica" fill="#111111"><tspan x="20.0" dy="0">4</tspan></text><rect x="0" y="160" width="40" height="40" fill="#FFFFFF" stroke="#333333" stroke-width="1" /><text x="20.0" y="182.4" text-anchor="middle" font-size="6" font-family="Helvetica" fill="#111111"><tspan x="20.0" dy="0">5</tspan></text><rect x="0" y="200" width="40" height="40" fill="#FFFFFF" stroke="#333333" stroke-width="1" /><text x="20.0" y="222.4" text-anchor="middle" font-size="6" font-family="Helvetica" fill="#111111"><tspan x="20.0" dy="0">6</tspan></text><rect x="0" y="240" width="40" height="40" fill="#FFFFFF" stroke="#333333" stroke-width="1" /><text x="20.0" y="262.4" text-anchor="middle" font-size="6" font-family="Helvetica" fill="#111111"><tspan x="20.0" dy="0">7</tspan></text><rect x="0" y="280" width="40" height="40" fill="#FFFFFF" stroke="#333333" stroke-width="1" /><text x="20.0" y="302.4" text-anchor="middle" font-size="6" font-family="Helvetica" fill="#111111"><tspan x="20.0" dy="0">8</tspan></text><rect x="0" y="320" width="40" height="40" fill="#FFFFFF" stroke="#333333" stroke-width="1" /><text x="20.0" y="342.4" text-anchor="middle" font-size="6" font-family="Helvetica" fill="#111111"><tspan x="20.0" dy="0">9</tspan></text><rect x="0" y="360" width="40" height="40" fill="#FFFFFF" stroke="#333333" stroke-width="1" /><text x="20.0" y="382.4" text-anchor="middle" font-size="6" font-family="Helvetica" fill="#111111"><tspan x="20.0" dy="0">10</tspan></text><rect x="0" y="400" width="40" height="40" fill="#FFFFFF" stroke="#333333" stroke-width="1" /><text x="20.0" y="422.4" text-anchor="middle" font-size="6" font-family="Helvetica" fill="#111111"><tspan x="20.0" dy="0">11</tspan></text><rect x="0" y="440" width="40" height="40" fill="#FFFFFF" stroke="#333333" stroke-width="1" /><text x="20.0" y="462.4" text-anchor="middle" font-size="6" font-family="Helvetica" fill="#111111"><tspan x="20.0" dy="0">12</tspan></text><rect x="680" y="0" width="211" height="40" fill="#FFFFFF" stroke="#333333" stroke-width="1" /><text x="785.5" y="18.8" text-anchor="middle" font-size="6" font-family="Helvetica" fill="#111111"><tspan x="785.5" dy="0">Baby lettuce mix; Center beneficial strip; Salad</tspan><tspan x="785.5" dy="7.199999999999999">succession engine - high water</tspan></text><rect x="680" y="40" width="211" height="40" fill="#FFFFFF" stroke="#333333" stroke-width="1" /><text x="785.5" y="58.8" text-anchor="middle" font-size="6" font-family="Helvetica" fill="#111111"><tspan x="785.5" dy="0">Anchor green - isolated to prevent spread; Center</tspan><tspan x="785.5" dy="7.199999999999999">beneficial strip; Overflow greens</tspan></text><rect x="680" y="80" width="211" height="40" fill="#FFFFFF" stroke="#333333" stroke-width="1" /><text x="785.5" y="98.8" text-anchor="middle" font-size="6" font-family="Helvetica" fill="#111111"><tspan x="785.5" dy="0">Center beneficial strip; Overflow lettuce; Spice strip</tspan><tspan x="785.5" dy="7.199999999999999">component</tspan></text><rect x="680" y="120" width="211" height="40" fill="#FFFFFF" stroke="#333333" stroke-width="1" /><text x="785.5" y="138.8" text-anchor="middle" font-size="6" font-family="Helvetica" fill="#111111"><tspan x="785.5" dy="0">Brassica block; Brassica block - nettable bed; Brassica</tspan><tspan x="785.5" dy="7.199999999999999">block - offset 10 days; Brassica block - offset 7 days</tspan></text><rect x="680" y="160" width="211" height="40" fill="#FFFFFF" stroke="#333333" stroke-width="1" /><text x="785.5" y="182.4" text-anchor="middle" font-size="6" font-family="Helvetica" fill="#111111"><tspan x="785.5" dy="0">Brassica conveyor belt</tspan></text><rect x="680" y="200" width="211" height="40" fill="#FFFFFF" stroke="#333333" stroke-width="1" /><text x="785.5" y="218.8" text-anchor="middle" font-size="6" font-family="Helvetica" fill="#111111"><tspan x="785.5" dy="0">Beet block; Beet block - offset 5 days; Center beneficial</tspan><tspan x="785.5" dy="7.199999999999999">strip; Romaine heads with roots; Roots block - offset 7</tspan></text><rect x="680" y="240" width="211" height="40" fill="#FFFFFF" stroke="#333333" stroke-width="1" /><rect x="680" y="280" width="211" height="40" fill="#FFFFFF" stroke="#333333" stroke-width="1" /><rect x="680" y="320" width="211" height="40" fill="#FFFFFF" stroke="#333333" stroke-width="1" /><rect x="680" y="360" width="211" height="40" fill="#FFFFFF" stroke="#333333" stroke-width="1" /><rect x="680" y="400" width="211" height="40" fill="#FFFFFF" stroke="#333333" stroke-width="1" /><rect x="680" y="440" width="211" height="40" fill="#FFFFFF" stroke="#333333" stroke-width="1" /><rect x="40" y="0" width="40" height="40" fill="#E6A8D7" fill-opacity="1.0" stroke="#333333" stroke-width="1" /><text x="60.0" y="22.4" text-anchor="middle" font-size="6" font-family="Helvetica" fill="#111111"><tspan x="60.0" dy="0">P/B</tspan></text><rect x="80" y="0" width="280" height="40" fill="#2E8B57" fill-opacity="0.7" stroke="#333333" stroke-width="1" stroke-dasharray="4,2" /><text x="220.0" y="18.8" text-anchor="middle" font-size="6" font-family="Helvetica" fill="#111111"><tspan x="220.0" dy="0">Greens Mixes</tspan><tspan x="220.0" dy="7.199999999999999">Ovation Greens Mix</tspan></text><rect x="360" y="0" width="40" height="40" fill="#B3D9FF" fill-opacity="1.0" stroke="#333333" stroke-width="1" /><text x="380.0" y="22.4" text-anchor="middle" font-size="6" font-family="Helvetica" fill="#111111"><tspan x="380.0" dy="0">BENE</tspan></text><rect x="400" y="0" width="240" height="40" fill="#2E8B57" fill-opacity="1.0" stroke="#333333" stroke-width="1" /><text x="520.0" y="18.8" text-anchor="middle" font-size="6" font-family="Helvetica" fill="#111111"><tspan x="520.0" dy="0">Lettuce (Mixed)</tspan><tspan x="520.0" dy="7.199999999999999">Allstar Gourmet Mix</tspan></text><rect x="640" y="0" width="40" height="40" fill="#E6A8D7" fill-opacity="1.0" stroke="#333333" stroke-width="1" /><text x="660.0" y="22.4" text-anchor="middle" font-size="6" font-family="Helvetica" fill="#111111"><tspan x="660.0" dy="0">P/B</tspan></text><rect x="40" y="40" width="40" height="40" fill="#E6A8D7" fill-opacity="1.0" stroke="#333333" stroke-width="1" /><text x="60.0" y="62.4" text-anchor="middle" font-size="6" font-family="Helvetica" fill="#111111"><tspan x="60.0" dy="0">P/B</tspan></text><rect x="80" y="40" width="240" height="40" fill="#2E8B57" fill-opacity="0.7" stroke="#333333" stroke-width="1" stroke-dasharray="4,2" /><text x="200.0" y="58.8" text-anchor="middle" font-size="6" font-family="Helvetica" fill="#111111"><tspan x="200.0" dy="0">Arugula</tspan><tspan x="200.0" dy="7.199999999999999">Wild Arugula</tspan></text><rect x="320" y="40" width="40" height="40" fill="#B3D9FF" fill-opacity="1.0" stroke="#333333" stroke-width="1" /><text x="340.0" y="62.4" text-anchor="middle" font-size="6" font-family="Helvetica" fill="#111111"><tspan x="340.0" dy="0">BENE</tspan></text><rect x="360" y="40" width="240" height="40" fill="#2E8B57" fill-opacity="0.7" stroke="#333333" stroke-width="1" stroke-dasharray="4,2" /><text x="480.0" y="58.8" text-anchor="middle" font-size="6" font-family="Helvetica" fill="#111111"><tspan x="480.0" dy="0">Greens Mixes</tspan><tspan x="480.0" dy="7.199999999999999">Ovation Greens Mix</tspan></text><rect x="600" y="40" width="40" height="40" fill="#F2F2F2" fill-opacity="1.0" stroke="#333333" stroke-width="1" /><rect x="640" y="40" width="40" height="40" fill="#E6A8D7" fill-opacity="1.0" stroke="#333333" stroke-width="1" /><text x="660.0" y="62.4" text-anchor="middle" font-size="6" font-family="Helvetica" fill="#111111"><tspan x="660.0" dy="0">P/B</tspan></text><rect x="40" y="80" width="40" height="40" fill="#E6A8D7" fill-opacity="1.0" stroke="#333333" stroke-width="1" /><text x="60.0" y="102.4" text-anchor="middle" font-size="6" font-family="Helvetica" fill="#111111"><tspan x="60.0" dy="0">P/B</tspan></text><rect x="80" y="80" width="240" height="40" fill="#2E8B57" fill-opacity="1.0" stroke="#333333" stroke-width="1" /><text x="200.0" y="98.8" text-anchor="middle" font-size="6" font-family="Helvetica" fill="#111111"><tspan x="200.0" dy="0">Lettuce (Mixed)</tspan><tspan x="200.0" dy="7.199999999999999">Allstar Gourmet Mix</tspan></text><rect x="320" y="80" width="40" height="40" fill="#B3D9FF" fill-opacity="1.0" stroke="#333333" stroke-width="1" /><text x="340.0" y="102.4" text-anchor="middle" font-size="6" font-family="Helvetica" fill="#111111"><tspan x="340.0" dy="0">BENE</tspan></text><rect x="360" y="80" width="40" height="40" fill="#2E8B57" fill-opacity="0.7" stroke="#333333" stroke-width="1" stroke-dasharray="4,2" /><text x="380.0" y="98.8" text-anchor="middle" font-size="6" font-family="Helvetica" fill="#111111"><tspan x="380.0" dy="0">Spinach</tspan><tspan x="380.0" dy="7.199999999999999">Corvair</tspan></text><rect x="400" y="80" width="40" height="40" fill="#2E8B57" fill-opacity="0.7" stroke="#333333" stroke-width="1" stroke-dasharray="4,2" /><text x="420.0" y="98.8" text-anchor="middle" font-size="6" font-family="Helvetica" fill="#111111"><tspan x="420.0" dy="0">Chicory</tspan><tspan x="420.0" dy="7.199999999999999">Gourmet</tspan></text><rect x="440" y="80" width="40" height="40" fill="#2E8B57" fill-opacity="0.7" stroke="#333333" stroke-width="1" stroke-dasharray="4,2" /><text x="460.0" y="98.8" text-anchor="middle" font-size="6" font-family="Helvetica" fill="#111111"><tspan x="460.0" dy="0">Mustard</tspan><tspan x="460.0" dy="7.199999999999999">Wasabina</tspan></text><rect x="480" y="80" width="40" height="40" fill="#D97A1E" fill-opacity="1.0" stroke="#333333" stroke-width="1" /><text x="500.0" y="98.8" text-anchor="middle" font-size="6" font-family="Helvetica" fill="#111111"><tspan x="500.0" dy="0">Radishes</tspan><tspan x="500.0" dy="7.199999999999999">Sora</tspan></text><rect x="520" y="80" width="120" height="40" fill="#F2F2F2" fill-opacity="1.0" stroke="#333333" stroke-width="1" /><rect x="640" y="80" width="40" height="40" fill="#E6A8D7" fill-opacity="1.0" stroke="#333333" stroke-width="1" /><text x="660.0" y="102.4" text-anchor="middle" font-size="6" font-family="Helvetica" fill="#111111"><tspan x="660.0" dy="0">P/B</tspan></text><rect x="40" y="120" width="40" height="40" fill="#E6A8D7" fill-opacity="1.0" stroke="#333333" stroke-width="1" /><text x="60.0" y="142.4" text-anchor="middle" font-size="6" font-family="Helvetica" fill="#111111"><tspan x="60.0" dy="0">P/B</tspan></text><rect x="80" y="120" width="120" height="40" fill="#6A9A1F" fill-opacity="1.0" stroke="#333333" stroke-width="1" /><text x="140.0" y="138.8" text-anchor="middle" font-size="6" font-family="Helvetica" fill="#111111"><tspan x="140.0" dy="0">Broccoli</tspan><tspan x="140.0" dy="7.199999999999999">Belstar F1</tspan></text><rect x="200" y="120" width="200" height="40" fill="#6A9A1F" fill-opacity="1.0" stroke="#333333" stroke-width="1" /><text x="300.0" y="138.8" text-anchor="middle" font-size="6" font-family="Helvetica" fill="#111111"><tspan x="300.0" dy="0">Broccoli</tspan><tspan x="300.0" dy="7.199999999999999">Happy Rich F1</tspan></text><rect x="400" y="120" width="120" height="40" fill="#6A9A1F" fill-opacity="1.0" stroke="#333333" stroke-width="1" /><text x="460.0" y="138.8" text-anchor="middle" font-size="6" font-family="Helvetica" fill="#111111"><tspan x="460.0" dy="0">Cauliflower</tspan><tspan x="460.0" dy="7.199999999999999">Earlisnow F1</tspan></text><rect x="520" y="120" width="120" height="40" fill="#6A9A1F" fill-opacity="1.0" stroke="#333333" stroke-width="1" /><text x="580.0" y="138.8" text-anchor="middle" font-size="6" font-family="Helvetica" fill="#111111"><tspan x="580.0" dy="0">Cauliflower</tspan><tspan x="580.0" dy="7.199999999999999">Tessaury F1</tspan></text><rect x="640" y="120" width="40" height="40" fill="#E6A8D7" fill-opacity="1.0" stroke="#333333" stroke-width="1" /><text x="660.0" y="142.4" text-anchor="middle" font-size="6" font-family="Helvetica" fill="#111111"><tspan x="660.0" dy="0">P/B</tspan></text><rect x="40" y="160" width="40" height="40" fill="#E6A8D7" fill-opacity="1.0" stroke="#333333" stroke-width="1" /><text x="60.0" y="182.4" text-anchor="middle" font-size="6" font-family="Helvetica" fill="#111111"><tspan x="60.0" dy="0">P/B</tspan></text><rect x="80" y="160" width="120" height="40" fill="#6A9A1F" fill-opacity="1.0" stroke="#333333" stroke-width="1" /><text x="140.0" y="178.8" text-anchor="middle" font-size="6" font-family="Helvetica" fill="#111111"><tspan x="140.0" dy="0">Chinese Cabbage</tspan><tspan x="140.0" dy="7.199999999999999">Bilko F1 Chinese Cabbage</tspan></text><rect x="200" y="160" width="80" height="40" fill="#6A9A1F" fill-opacity="1.0" stroke="#333333" stroke-width="1" /><text x="240.0" y="178.8" text-anchor="middle" font-size="6" font-family="Helvetica" fill="#111111"><tspan x="240.0" dy="0">Pak Choi</tspan><tspan x="240.0" dy="7.199999999999999">Black Summer F1</tspan></text><rect x="280" y="160" width="80" height="40" fill="#6A9A1F" fill-opacity="1.0" stroke="#333333" stroke-width="1" /><text x="320.0" y="178.8" text-anchor="middle" font-size="6" font-family="Helvetica" fill="#111111"><tspan x="320.0" dy="0">Cabbage</tspan><tspan x="320.0" dy="7.199999999999999">Bronco F1</tspan></text><rect x="360" y="160" width="280" height="40" fill="#F2F2F2" fill-opacity="1.0" stroke="#333333" stroke-width="1" /><rect x="640" y="160" width="40" height="40" fill="#E6A8D7" fill-opacity="1.0" stroke="#333333" stroke-width="1" /><text x="660.0" y="182.4" text-anchor="middle" font-size="6" font-family="Helvetica" fill="#111111"><tspan x="660.0" dy="0">P/B</tspan></text><rect x="40" y="200" width="40" height="40" fill="#E6A8D7" fill-opacity="1.0" stroke="#333333" stroke-width="1" /><text x="60.0" y="222.4" text-anchor="middle" font-size="6" font-family="Helvetica" fill="#111111"><tspan x="60.0" dy="0">P/B</tspan></text><rect x="80" y="200" width="80" height="40" fill="#D97A1E" fill-opacity="0.7" stroke="#333333" stroke-width="1" stroke-dasharray="4,2" /><text x="120.0" y="218.8" text-anchor="middle" font-size="6" font-family="Helvetica" fill="#111111"><tspan x="120.0" dy="0">Carrots</tspan><tspan x="120.0" dy="7.199999999999999">Bengala F1</tspan></text><rect x="160" y="200" width="80" height="40" fill="#D97A1E" fill-opacity="0.7" stroke="#333333" stroke-width="1" stroke-dasharray="4,2" /><text x="200.0" y="218.8" text-anchor="middle" font-size="6" font-family="Helvetica" fill="#111111"><tspan x="200.0" dy="0">Carrots</tspan><tspan x="200.0" dy="7.199999999999999">Bolero F1</tspan></text><rect x="240" y="200" width="80" height="40" fill="#4CAF50" fill-opacity="1.0" stroke="#333333" stroke-width="1" /><text x="280.0" y="218.8" text-anchor="middle" font-size="6" font-family="Helvetica" fill="#111111"><tspan x="280.0" dy="0">Lettuce (Single)</tspan><tspan x="280.0" dy="7.199999999999999">Sunland</tspan></text><rect x="320" y="200" width="40" height="40" fill="#B3D9FF" fill-opacity="1.0" stroke="#333333" stroke-width="1" /><text x="340.0" y="222.4" text-anchor="middle" font-size="6" font-family="Helvetica" fill="#111111"><tspan x="340.0" dy="0">BENE</tspan></text><rect x="360" y="200" width="120" height="40" fill="#D97A1E" fill-opacity="0.7" stroke="#333333" stroke-width="1" stroke-dasharray="4,2" /><text x="420.0" y="218.8" text-anchor="middle" font-size="6" font-family="Helvetica" fill="#111111"><tspan x="420.0" dy="0">Beets</tspan><tspan x="420.0" dy="7.199999999999999">Boldor</tspan></text><rect x="480" y="200" width="120" height="40" fill="#D97A1E" fill-opacity="0.7" stroke="#333333" stroke-width="1" stroke-dasharray="4,2" /><text x="540.0" y="218.8" text-anchor="middle" font-size="6" font-family="Helvetica" fill="#111111"><tspan x="540.0" dy="0">Beets</tspan><tspan x="540.0" dy="7.199999999999999">Boro F1</tspan></text><rect x="600" y="200" width="40" height="40" fill="#F2F2F2" fill-opacity="1.0" stroke="#333333" stroke-width="1" /><rect x="640" y="200" width="40" height="40" fill="#E6A8D7" fill-opacity="1.0" stroke="#333333" stroke-width="1" /><text x="660.0" y="222.4" text-anchor="middle" font-size="6" font-family="Helvetica" fill="#111111"><tspan x="660.0" dy="0">P/B</tspan></text><rect x="40" y="240" width="40" height="40" fill="#E6A8D7" fill-opacity="1.0" stroke="#333333" stroke-width="1" /><text x="60.0" y="262.4" text-anchor="middle" font-size="6" font-family="Helvetica" fill="#111111"><tspan x="60.0" dy="0">P/B</tspan></text><rect x="80" y="240" width="560" height="40" fill="#F2F2F2" fill-opacity="1.0" stroke="#333333" stroke-width="1" /><rect x="640" y="240" width="40" height="40" fill="#E6A8D7" fill-opacity="1.0" stroke="#333333" stroke-width="1" /><text x="660.0" y="262.4" text-anchor="middle" font-size="6" font-family="Helvetica" fill="#111111"><tspan x="660.0" dy="0">P/B</tspan></text><rect x="40" y="280" width="40" height="40" fill="#E6A8D7" fill-opacity="1.0" stroke="#333333" stroke-width="1" /><text x="60.0" y="302.4" text-anchor="middle" font-size="6" font-family="Helvetica" fill="#111111"><tspan x="60.0" dy="0">P/B</tspan></text><rect x="80" y="280" width="560" height="40" fill="#F2F2F2" fill-opacity="1.0" stroke="#333333" stroke-width="1" /><rect x="640" y="280" width="40" height="40" fill="#E6A8D7" fill-opacity="1.0" stroke="#333333" stroke-width="1" /><text x="660.0" y="302.4" text-anchor="middle" font-size="6" font-family="Helvetica" fill="#111111"><tspan x="660.0" dy="0">P/B</tspan></text><rect x="40" y="320" width="40" height="40" fill="#E6A8D7" fill-opacity="1.0" stroke="#333333" stroke-width="1" /><text x="60.0" y="342.4" text-anchor="middle" font-size="6" font-family="Helvetica" fill="#111111"><tspan x="60.0" dy="0">P/B</tspan></text><rect x="80" y="320" width="560" height="40" fill="#F2F2F2" fill-opacity="1.0" stroke="#333333" stroke-width="1" /><rect x="640" y="320" width="40" height="40" fill="#E6A8D7" fill-opacity="1.0" stroke="#333333" stroke-width="1" /><text x="660.0" y="342.4" text-anchor="middle" font-size="6" font-family="Helvetica" fill="#111111"><tspan x="660.0" dy="0">P/B</tspan></text><rect x="40" y="360" width="40" height="40" fill="#E6A8D7" fill-opacity="1.0" stroke="#333333" stroke-width="1" /><text x="60.0" y="382.4" text-anchor="middle" font-size="6" font-family="Helvetica" fill="#111111"><tspan x="60.0" dy="0">P/B</tspan></text><rect x="80" y="360" width="560" height="40" fill="#F2F2F2" fill-opacity="1.0" stroke="#333333" stroke-width="1" /><rect x="640" y="360" width="40" height="40" fill="#E6A8D7" fill-opacity="1.0" stroke="#333333" stroke-width="1" /><text x="660.0" y="382.4" text-anchor="middle" font-size="6" font-family="Helvetica" fill="#111111"><tspan x="660.0" dy="0">P/B</tspan></text><rect x="40" y="400" width="40" height="40" fill="#E6A8D7" fill-opacity="1.0" stroke="#333333" stroke-width="1" /><text x="60.0" y="422.4" text-anchor="middle" font-size="6" font-family="Helvetica" fill="#111111"><tspan x="60.0" dy="0">P/B</tspan></text><rect x="80" y="400" width="560" height="40" fill="#F2F2F2" fill-opacity="1.0" stroke="#333333" stroke-width="1" /><rect x="640" y="400" width="40" height="40" fill="#E6A8D7" fill-opacity="1.0" stroke="#333333" stroke-width="1" /><text x="660.0" y="422.4" text-anchor="middle" font-size="6" font-family="Helvetica" fill="#111111"><tspan x="660.0" dy="0">P/B</tspan></text><rect x="40" y="440" width="40" height="40" fill="#E6A8D7" fill-opacity="1.0" stroke="#333333" stroke-width="1" /><text x="60.0" y="462.4" text-anchor="middle" font-size="6" font-family="Helvetica" fill="#111111"><tspan x="60.0" dy="0">P/B</tspan></text><rect x="80" y="440" width="560" height="40" fill="#F2F2F2" fill-opacity="1.0" stroke="#333333" stroke-width="1" /><rect x="640" y="440" width="40" height="40" fill="#E6A8D7" fill-opacity="1.0" stroke="#333333" stroke-width="1" /><text x="660.0" y="462.4" text-anchor="middle" font-size="6" font-family="Helvetica" fill="#111111"><tspan x="660.0" dy="0">P/B</tspan></text></svg>